<svg version="1.1" xmlns="http://www.w3.org/2000/svg" xmlns:xlink="http://www.w3.org/1999/xlink" width="1365.78768" height="645.97003" viewBox="0,0,1365.78768,645.97003"><g transform="translate(428.60422,159.98645)"><g data-paper-data="{&quot;isPaintingLayer&quot;:true}" fill="#000000" fill-rule="nonzero" stroke="none" stroke-width="0.5" stroke-linecap="butt" stroke-linejoin="miter" stroke-miterlimit="10" stroke-dasharray="" stroke-dashoffset="0" style="mix-blend-mode: normal"><path d="M-331.56847,61.88288c-3.93758,-2.22415 -7.74014,-4.86614 -10.83827,-8.16053c-0.65561,-0.69714 -0.41197,-1.8802 -0.78453,-2.76169c-1.03845,-2.45705 -2.70807,-4.66081 -3.43699,-7.22676c-0.5464,-1.92343 1.1989,-8.32447 1.44935,-9.55465c0.25045,-1.23018 1.1467,-7.80407 2.40161,-9.36078c1.67412,-2.07672 4.07245,-3.45229 5.98888,-5.30776c0.68754,-0.66567 0.92584,-1.84982 1.80183,-2.23514c3.46464,-1.52401 7.19012,-2.38653 10.85506,-3.33232c23.78379,-6.13776 48.25367,-7.03139 72.95548,-6.21372c-1.3972,-1.01252 -2.75052,-2.09247 -4.04411,-3.22526c-33.46481,2.34015 -68.18561,4.7411 -98.32774,-3.49476c-3.65117,-0.99762 -7.36422,-1.9204 -10.79814,-3.5124c-0.21847,-0.10129 -2.23458,-3.26071 -3.11838,-3.49712c-1.74421,-0.46657 -5.02348,-0.0137 -6.94182,-0.39062c-6.15114,-1.2086 -10.61001,-3.70797 -15.40581,-7.8498c-2.34915,-2.02881 -2.84201,-6.69995 -3.62666,-9.13287c-3.16644,-9.81793 -1.98018,-18.13589 5.70931,-25.41721c1.37554,-1.30252 2.89651,-3.26137 4.72942,-4.0845c10.77387,-4.83839 23.59635,-3.98831 34.77615,-5.8399c0.50438,-0.08354 -0.70497,-0.74066 -1.06106,-1.10751c-1.53635,-1.58278 -4.18825,-2.60723 -4.57794,-4.77833c-1.90534,-10.61527 -3.63241,-11.67629 -0.27181,-20.77392c0.98716,-2.67237 0.68942,-6.33432 2.99809,-8.00348c3.0673,-2.21765 5.56305,-5.74604 9.25543,-6.57828c23.07145,-5.20013 30.06724,-0.4033 63.41383,2.45447c0.49985,0.04284 0.26957,-1.03904 0.66193,-1.35166c2.09978,-1.67306 4.37829,-3.11817 6.68084,-4.49891c3.28226,-1.96823 8.80508,-2.76578 12.61387,-2.62789c37.00392,1.33962 73.98308,5.40536 110.99748,4.39594c0.74514,-0.02032 -0.92775,-13.1432 -0.21399,-14.58345c2.02542,-4.08697 4.11495,-8.14537 6.35463,-12.11897c1.17428,-2.08339 4.1242,-2.42597 6.23972,-3.54133c4.55166,-2.39978 7.22139,-2.75428 12.59755,-3.07056c57.95733,-3.40958 113.48201,25.02519 170.90867,33.56079c17.08312,2.53915 34.53833,-0.47988 51.80819,-0.65998c21.97922,-0.22921 43.8026,3.72723 65.70959,5.52235c1.21011,0.09916 1.28714,-6.90761 3.48529,-8.49871c6.55065,-4.74162 9.58367,-6.44496 17.34084,-7.87927c36.7502,-6.79519 74.39332,7.80561 111.7397,9.21995c13.53754,0.51268 -26.73461,-4.40305 -40.0841,-6.70936c-4.11452,-0.71084 -7.79536,-2.97888 -11.44366,-4.85001c-1.50365,-0.77119 -2.21673,-2.55138 -3.3098,-3.84014c-1.45524,-1.71577 -4.04736,-2.95983 -4.30973,-5.19428c-0.31963,-2.72213 -0.51481,-5.45758 -0.80549,-8.18296c-1.01186,-9.48684 0.82574,-10.33076 5.2479,-19.97793c0.56265,-1.22746 7.881,-5.04356 9.58863,-6.08234c2.62281,-1.5955 9.31625,-1.77171 12.82301,-1.2594c36.01066,5.26085 72.00429,10.6378 108,16c12.95075,1.92925 34.96776,7.85027 39.53997,8.69107c28.6269,5.26431 57.87381,9.04195 86.46831,14.47945c129.66839,24.65762 259.35749,49.20668 389,74c7.00178,1.33905 13.23203,5.71961 16.6269,11.62431c0.56802,0.98795 1.79389,1.5881 2.12424,2.67876c0.56105,1.85234 0.12613,3.87988 0.44073,5.78958c0.21023,1.27616 1.0266,2.42386 1.12478,3.71349c0.24334,3.19653 -1.16111,6.02238 -2.12359,8.91595c-0.61087,1.83651 -0.50007,3.90721 -1.34531,5.64833c-1.85385,3.81875 -9.23914,8.5767 -13.32796,10.01477c-6.76454,2.37913 -15.47255,-0.14054 -21.91336,1.59945c-1.80415,0.48739 3.35831,1.82815 5.21194,2.06599c12.78332,1.64027 25.67382,2.29843 38.50171,3.54304c5.96359,0.57861 11.06291,3.29827 15.19897,7.41117c1.64887,1.63964 4.35643,2.74968 4.83956,5.02427c0.97471,4.58897 1.82937,9.20353 2.63323,13.82549c0.35472,2.03951 -4.20537,12.91314 -4.6902,14.21807c-0.80985,2.17975 -3.65041,2.88285 -5.52088,4.26434c-12.02206,8.8793 -27.75228,3.87264 -41.65312,3.71665c-0.37263,-0.00418 0.05149,0.74473 0.11349,1.11219c0.30911,1.83211 0.81077,3.63528 0.99938,5.48368c0.20198,1.97947 -2.2754,6.35044 -2.54552,7.02445c-0.93002,2.32066 -1.52167,4.77513 -2.55533,7.05152c-2.28254,5.02674 -12.8868,7.9366 -17.97639,8.68384c-5.21862,0.76618 -14.22684,-0.90544 -17.38865,-1.06678c-4.03915,-0.20611 -8.85169,2.56795 -13.38967,2.04316c-29.14611,-3.3706 -58.51742,-12.72854 -87.58581,-8.74286c-0.69008,0.09462 0.91793,1.04878 1.4041,1.54758c0.68202,0.69972 1.69092,1.09356 2.21852,1.916c0.49689,0.77456 0.31449,1.83917 0.7203,2.66511c0.68508,1.39435 2.11122,2.42312 2.51656,3.92288c0.7981,2.95298 0.46528,11.91138 -0.36066,14.96735c-1.2637,4.67568 -4.18292,9.57979 -7.85127,12.74791c-1.0461,0.90345 -2.379,1.41355 -3.61868,2.02488c-0.62933,0.31034 -2.66352,0.39335 -2.00597,0.63826c1.7351,0.64624 3.68318,0.39383 5.51425,0.66839c6.01357,0.90172 11.01206,3.60405 15.09162,7.97077c1.54927,1.65832 4.2028,2.79981 4.57973,5.03771c1.7496,10.38745 3.23365,11.77622 -0.20195,20.60123c-1.05604,2.71265 -0.89922,6.41485 -3.27638,8.09498c-2.93237,2.07254 -5.90052,4.09444 -8.88084,6.09742c-0.50406,0.33876 -1.52987,-0.0943 -1.76099,0.46732c-0.29146,0.70825 0.04531,6.30776 -0.24587,7.36681c-0.32949,1.19841 -1.31593,2.1228 -1.78378,3.27426c-0.44914,1.1054 -2.1167,3.20655 -0.94893,3.4514c15.02674,3.15066 31.78657,-1.42516 43.83727,8.87617c1.43671,1.22815 5.08757,3.77883 5.83899,5.99225c1.21416,3.5765 2.02411,7.289 2.69276,11.00632c0.48459,2.69407 -0.99848,5.70073 -1.6598,8.16066c-0.57496,2.13871 -0.56489,4.43024 -1.32421,6.51065c-0.80143,2.19581 -4.5092,4.66303 -5.9734,5.85827c-13.5728,11.07965 -38.27845,6.81798 -52.58039,8.42178c-0.6858,0.0769 -0.25374,1.4321 -0.71961,1.94121c-1.33089,1.45442 -3.08652,2.45377 -4.64877,3.65625c-4.9323,3.79645 -10.80429,6.56129 -14.91352,11.23621c-0.83397,0.94877 1.76475,1.80972 2.69619,2.663c1.41236,1.29382 2.9692,2.4293 4.33195,3.77527c1.43579,1.41811 -0.17648,5.17398 1.7427,5.79793c1.14889,0.37352 18.25975,1.61141 25.14208,3.65911c2.80213,0.83372 5.85569,1.9895 8.17003,3.81838c0.99335,0.78498 2.87833,3.8388 4.29781,3.98709c47.54117,4.96654 95.19904,8.74478 142.79066,13.20206c5.87421,0.55016 10.88577,3.23149 14.99461,7.20869c1.74029,1.68454 4.48094,2.87841 5.03856,5.23538c0.59231,2.50361 0.81385,5.08199 1.31923,7.60458c0.47495,2.37074 1.9442,4.83382 1.23981,7.14679c-1.08335,3.55734 -2.54268,11.86371 -5.22028,14.03211c-6.13416,4.96762 -12.26644,8.90215 -20.4647,8.65374c-41.6833,-1.26302 -83.34295,-3.70722 -125.04462,-3.9592c-1.10513,-0.00668 0.81027,2.10379 0.83466,3.20867c0.01929,0.87381 -0.64712,1.65276 -0.70808,2.52466c-0.10576,1.51241 0.62327,3.08351 0.21385,4.54329c-0.53585,1.91056 -4.72592,4.31173 -2.93987,5.17625c0.78845,0.38164 1.8217,0.06431 2.57897,0.50458c3.40999,1.98255 11.47305,9.24472 12.56935,13.44723c0.49848,1.91084 -0.02025,3.96557 0.27672,5.9179c0.29697,1.95233 1.4032,3.75989 1.49544,5.73252c0.02491,0.53276 -2.23471,5.0462 -2.07143,5.86905c0.09414,0.47442 2.16019,1.95213 2.36828,2.65432c2.74122,9.25019 3.7867,11.58707 1.45026,19.98867c-0.11827,0.42529 -0.98644,7.16679 -2.87851,8.88227c-2.06216,1.86971 -6.07094,5.99502 -8.94997,6.9882c-17.58743,6.06712 -37.53516,-0.44944 -54.59924,4.74259c-4.06707,1.23747 -8.58904,2.07876 -12.78329,1.61342c-4.0148,-0.44543 -8.00597,-1.11482 -12.03198,-1.44384c-0.92117,-0.07528 -3.32869,1.28431 -2.40875,1.37332c45.49128,4.40167 67.10697,-2.04001 99.43557,11.31271c1.5393,0.63578 2.36695,2.3436 3.54082,3.52501c1.56851,1.57859 4.24321,2.58647 4.67039,4.77043c0.53072,2.71329 0.97655,5.44255 1.48756,8.15962c1.77963,9.46248 -0.04863,10.32154 -3.69656,20.39c-0.27757,0.76611 -7.7763,5.83477 -9.09727,6.79532c-2.43618,1.77148 -9.19684,2.47491 -12.68976,2.23287c-46.79355,-3.24254 -93.48948,-8.26318 -140.36473,-9.95495c-100.40887,-3.62383 -200.90966,-3.95039 -301.36326,-5.98735c-18.86917,-0.38262 -37.39709,-5.39501 -56.22977,-6.62888c-24.68893,-1.61756 -49.47887,-2.92615 -74.20055,-1.92729c-72.20933,2.91757 -144.17108,15.98382 -216.39206,13.37042c-72.3254,-2.61717 -139.98746,-36.8721 -210.43185,-53.46733c-6.19387,-1.45915 -12.87432,1.6767 -19.12324,0.40917c-2.71712,-0.55114 -6.42961,-0.80428 -8.70055,-2.37273c-1.12379,-0.77616 -8.97822,-7.45498 -9.02725,-7.47031c-7.68468,-2.40206 -16.37744,-4.10251 -21.32892,-11.21997c-4.9505,-7.11606 -4.61398,-21.31557 -0.32332,-28.90444c0.12123,-0.21441 4.1711,-3.02514 4.13872,-4.54789c-0.07444,-3.50039 -2.08674,-6.69602 -2.79534,-10.12475c-0.48516,-2.34756 1.07323,-4.73461 1.06708,-6.92149c-0.00148,-0.52461 -0.96485,-0.60207 -1.12354,-1.1021c-1.1993,-3.77894 -2.19342,-7.62862 -2.98325,-11.51383c-0.50175,-2.46814 1.054,-5.75739 1.60698,-7.88794c0.57964,-2.23325 0.63985,-4.5977 1.38175,-6.78241c1.73196,-5.10016 11.41386,-9.98627 16.51412,-11.21799c4.67137,-1.12815 13.67239,-1.19794 16.63649,-1.44068c1.37201,-0.11236 -2.43947,-1.36276 -3.39024,-2.35828c-0.5136,-0.53778 -0.40915,-1.45971 -0.83699,-2.06795c-0.65089,-0.92534 -1.91966,-1.40577 -2.34411,-2.45447c-0.72838,-1.79961 -0.4843,-3.86356 -0.97348,-5.74235c-0.3274,-1.25742 -1.24528,-2.33223 -1.46245,-3.6133c-0.30118,-1.7766 -0.2758,-3.61569 -0.06646,-5.40544c0.12326,-1.05379 2.01189,-2.40232 1.12125,-2.97888c-10.45754,-6.76976 -22.51627,-10.787 -33.08147,-17.38748c-2.78759,-1.74152 -6.71728,-5.02054 -8.81032,-7.16346c-1.30848,-1.33966 0.239,-5.80714 -2.32754,-5.95196c-37.44361,-2.11274 -74.99413,-1.35704 -112.48942,-2.12553c-5.92901,-0.12152 -11.16013,-2.44899 -15.55899,-6.16c-1.82499,-1.53962 -4.63233,-2.50054 -5.33174,-4.78349c-0.76344,-2.49193 -1.20811,-5.07158 -1.89702,-7.58513c-0.63025,-2.29951 -2.28054,-4.61803 -1.73548,-6.93921c0.8102,-3.4503 1.83582,-12.21305 4.1786,-14.37675c5.87103,-5.42223 11.66785,-9.84898 19.98407,-10.13707c46.00099,-1.59357 92.0342,-2.37817 138.00911,-4.6003c3.79857,-0.1836 -2.19091,-1.35483 -2.41067,-2.16793c-1.28149,-4.74152 -2.53063,-9.49179 -3.76557,-14.24564c-0.55659,-2.14256 1.14604,-4.27648 1.7327,-6.411c0.73593,-2.6776 1.42279,-5.36865 2.17355,-8.04212c0.59827,-2.13045 3.34136,-2.90221 5.02424,-4.33911c1.25707,-1.07332 2.20943,-2.70307 3.78457,-3.20425c4.05901,-1.2915 7.984,-2.93092 12.28495,-3.00351c3.94815,-0.06663 9.25573,2.95177 11.8461,-0.02856c1.26884,-1.45985 0.94777,-3.84224 2.06015,-5.42457c4.60015,-6.54363 13.15936,-10.50321 21.09375,-10.54687c13.99979,-0.07705 28.00001,-0.01823 42,0c1.21641,0.00158 4.86083,0.21104 3.64665,0.13739c-17.71284,-1.07435 -35.43498,-2.00033 -53.14098,-3.18209c-3.87533,-0.25865 -9.13708,-1.58821 -12.29086,-3.86658c-7.10254,-5.13106 -9.31731,-10.21201 -11.12083,-18.92298c-0.24737,-1.19479 -0.26439,-2.45905 -0.04928,-3.66007c0.284,-1.58568 3.03482,-4.02084 1.52609,-4.58544c-10.15398,-3.79985 -36.93529,-9.54874 -47.28348,-21.45203c-2.08936,-2.40334 -4.14797,-4.84071 -6.39109,-7.10121c-0.59086,-0.59543 -1.66719,-0.76355 -1.99296,-1.53654z"/></g></g></svg>