<svg xmlns="http://www.w3.org/2000/svg" xmlns:xlink="http://www.w3.org/1999/xlink" version="1.1" width="59.69720959974856" height="59.59691357924075" viewBox="-0.8054059163408014 -0.8667059556321832 59.69720959974856 59.59691357924075">
  <!-- Exported by Scratch - http://scratch.mit.edu/ -->
  <path id="ID0.0757432202808559" fill="#70C5CE" stroke="none" d="M 0.9682 0.9069 L 57.1182 0.9069 L 57.1182 56.9566 L 0.9682 56.9566 L 0.9682 0.9069 Z " stroke-width="1.0026785135269165"/>
  <path id="ID0.8077859305776656" fill="none" stroke="#000000" stroke-width="3.5472118885669177" d="M 48.4541 14.201 L 48.8911 14.6418 L 13.9359 49.2901 L 13.4989 48.8492 L 48.4541 14.201 Z "/>
  <path id="ID0.5389075363054872" fill="#1D1D1B" d="M 54.1544 50.9702 C 49.4349 55.6934 41.7508 55.6934 37.0274 50.9702 C 32.3042 46.2468 32.3042 38.5626 37.0274 33.8413 C 38.2773 32.5935 39.801 31.6413 41.5535 31.0203 C 42.1055 30.8271 42.7167 30.9672 43.1266 31.3792 C 43.5407 31.7931 43.6806 32.4042 43.4855 32.9523 C 42.2987 36.2996 43.107 39.9228 45.5908 42.4068 C 48.0708 44.8886 51.6941 45.695 55.0453 44.5122 C 55.5934 44.3171 56.2065 44.457 56.6185 44.871 C 57.0325 45.281 57.1705 45.8941 56.9753 46.4441 C 56.3582 48.1966 55.4042 49.7203 54.1544 50.9702 Z M 39.1683 35.9821 C 35.6258 39.5247 35.6258 45.2888 39.1683 48.8293 C 42.9533 52.6163 49.3995 52.2752 52.6995 48.0565 C 49.2969 48.2694 45.9457 47.0413 43.45 44.5475 C 40.9543 42.0538 39.7282 38.7025 39.941 35.3 C 39.669 35.513 39.4107 35.7397 39.1683 35.9821 Z " stroke-width="0.09462389349937439"/>
  <g id="ID0.5474863699637353">
    <g id="ID0.9548296565189958">
      <path id="ID0.5195635338313878" fill="#1D1D1B" d="M 15.5249 9.1502 C 11.2514 9.1502 7.7738 12.6278 7.7738 16.9013 C 7.7738 21.1748 11.2514 24.6524 15.5249 24.6524 C 19.7984 24.6524 23.276 21.1748 23.276 16.9013 C 23.276 12.6278 19.7984 9.1502 15.5249 9.1502 Z M 15.5249 22.4378 C 12.4668 22.4378 9.9884 19.9594 9.9884 16.9013 C 9.9884 13.8432 12.4668 11.3648 15.5249 11.3648 C 18.583 11.3648 21.0614 13.8432 21.0614 16.9013 C 21.0614 19.9594 18.583 22.4378 15.5249 22.4378 Z M 15.5249 6.9356 C 16.1362 6.9356 16.6322 6.4396 16.6322 5.8283 L 16.6322 3.6137 C 16.6322 3.0024 16.1362 2.5064 15.5249 2.5064 C 14.9136 2.5064 14.4176 3.0024 14.4176 3.6137 L 14.4176 5.8283 C 14.4176 6.4396 14.9136 6.9356 15.5249 6.9356 Z M 15.5249 26.867 C 14.9136 26.867 14.4176 27.363 14.4176 27.9743 L 14.4176 30.1889 C 14.4176 30.8002 14.9136 31.2962 15.5249 31.2962 C 16.1362 31.2962 16.6322 30.8002 16.6322 30.1889 L 16.6322 27.9743 C 16.6322 27.363 16.1362 26.867 15.5249 26.867 Z M 24.1368 9.8538 L 25.7026 8.288 C 26.1351 7.8555 26.1351 7.1548 25.7026 6.7222 C 25.27 6.2897 24.5693 6.2897 24.1368 6.7222 L 22.571 8.288 C 22.1384 8.7206 22.1384 9.4213 22.571 9.8538 C 23.0035 10.2864 23.7042 10.2864 24.1368 9.8538 Z M 6.913 23.9489 L 5.3472 25.5147 C 4.9147 25.9471 4.9147 26.6478 5.3472 27.0804 C 5.7797 27.5129 6.4805 27.5129 6.913 27.0804 L 8.4788 25.5147 C 8.9113 25.0807 8.9113 24.3813 8.4788 23.9489 C 8.0463 23.5163 7.3455 23.5148 6.913 23.9489 Z M 5.5592 16.9013 C 5.5592 16.29 5.0632 15.794 4.4519 15.794 L 2.2373 15.794 C 1.626 15.794 1.13 16.29 1.13 16.9013 C 1.13 17.5126 1.626 18.0086 2.2373 18.0086 L 4.4519 18.0086 C 5.0632 18.0086 5.5592 17.5126 5.5592 16.9013 Z M 28.8125 15.794 L 26.5979 15.794 C 25.9866 15.794 25.4906 16.29 25.4906 16.9013 C 25.4906 17.5126 25.9866 18.0086 26.5979 18.0086 L 28.8125 18.0086 C 29.4238 18.0086 29.9198 17.5126 29.9198 16.9013 C 29.9198 16.29 29.4238 15.794 28.8125 15.794 Z M 6.9115 9.8538 C 7.3442 10.2864 8.0449 10.2864 8.4773 9.8538 C 8.9099 9.4213 8.9099 8.7206 8.4773 8.288 L 6.9115 6.7222 C 6.479 6.2897 5.7784 6.2897 5.3458 6.7222 C 4.9132 7.1548 4.9132 7.8555 5.3458 8.288 L 6.9115 9.8538 Z M 24.1382 23.9473 C 23.7042 23.5148 23.0049 23.5148 22.5724 23.9473 C 22.1398 24.3799 22.1384 25.0806 22.5724 25.5131 L 24.1382 27.0789 C 24.5707 27.5115 25.2714 27.5115 25.704 27.0789 C 26.1365 26.6464 26.1365 25.9457 25.704 25.5131 L 24.1382 23.9473 Z " stroke-width="0.06920627516206768"/>
    </g>
  </g>
</svg>