<svg xmlns="http://www.w3.org/2000/svg" xmlns:xlink="http://www.w3.org/1999/xlink" version="1.1" width="57.15267622470856" height="57.05237638950348" viewBox="0.41686075925827026 -0.49443925684317946 57.15267622470856 57.05237638950348">
  <!-- Exported by Scratch - http://scratch.mit.edu/ -->
  <path id="ID0.0757432202808559" fill="#008793" stroke="none" d="M 0.9182 0.0069 L 57.0682 0.0069 L 57.0682 56.0566 L 0.9182 56.0566 L 0.9182 0.0069 Z " stroke-width="1.0026785135269165"/>
  <path id="ID0.5389075363054872" fill="#1D1D1B" d="M 46.802 44.6242 C 37.2928 54.1411 21.81 54.1411 12.293 44.6242 C 2.7761 35.1072 2.7761 19.6242 12.293 10.1112 C 14.8114 7.597 17.8815 5.6784 21.4125 4.4273 C 22.5248 4.0379 23.7563 4.3201 24.5822 5.1502 C 25.4165 5.9844 25.6985 7.2156 25.3054 8.3199 C 22.9141 15.0645 24.5427 22.3649 29.5473 27.3699 C 34.5443 32.3705 41.8449 33.9953 48.5973 31.612 C 49.7016 31.2189 50.9368 31.5009 51.7669 32.335 C 52.6013 33.1611 52.8792 34.3964 52.4859 35.5047 C 51.2426 39.0357 49.3202 42.1058 46.802 44.6242 Z M 16.6066 14.4248 C 9.4687 21.5626 9.4687 33.1768 16.6066 40.3106 C 24.2329 47.9409 37.2215 47.2538 43.8707 38.7535 C 37.0148 39.1825 30.2625 36.7079 25.2339 31.6831 C 20.2053 26.6585 17.7347 19.906 18.1635 13.0503 C 17.6156 13.4795 17.0951 13.9363 16.6066 14.4248 Z " stroke-width="0.190657839179039"/>
</svg>