<svg version="1.1" xmlns="http://www.w3.org/2000/svg" xmlns:xlink="http://www.w3.org/1999/xlink" width="300" height="186" viewBox="0,0,300,186"><g transform="translate(-90.00004,-87)"><g data-paper-data="{&quot;isPaintingLayer&quot;:true}" stroke-linecap="butt" stroke-linejoin="miter" stroke-miterlimit="10" stroke-dasharray="" stroke-dashoffset="0" style="mix-blend-mode: normal"><path d="M90.00005,273v-186h300v186z" fill="#fcb103" fill-rule="nonzero" stroke="none" stroke-width="1"/><path d="M355.53972,117.66419v38.91235c0,3.56698 -2.91842,6.48539 -6.48539,6.48539h-38.94476c-3.56698,0 -6.45296,-2.91842 -6.45296,-6.48539l0.03242,-51.88312c0,-3.56695 2.88599,-6.48539 6.45295,-6.48539h25.94156z" data-paper-data="{&quot;index&quot;:null}" fill-opacity="0.25098" fill="#ffffff" fill-rule="nonzero" stroke="none" stroke-width="1"/><path d="M177.5604,203.66418v44.91235c0,4.11698 -3.36843,7.48539 -7.48539,7.48539h-44.94976c-4.11698,0 -7.44796,-3.36843 -7.44796,-7.48539l0.03742,-59.88312c0,-4.11695 3.33099,-7.48539 7.44795,-7.48539h29.94156z" data-paper-data="{&quot;index&quot;:null}" fill-opacity="0.25098" fill="#ffffff" fill-rule="nonzero" stroke="none" stroke-width="1"/><path d="M159.07736,118.24288v44.91235c0,4.11697 -3.36843,7.48539 -7.48539,7.48539h-44.94976c-4.11698,0 -7.44796,-3.36843 -7.44796,-7.48539l0.03742,-59.88312c0,-4.11695 3.331,-7.48539 7.44795,-7.48539h29.94156z" fill-opacity="0.25098" fill="#ffffff" fill-rule="nonzero" stroke="none" stroke-width="1"/><path d="M216.27738,113.44288v35.31235c0,3.23698 -2.64843,5.88539 -5.88539,5.88539h-35.34176c-3.23698,0 -5.85596,-2.64843 -5.85596,-5.88539l0.02942,-47.08312c0,-3.23695 2.61899,-5.88539 5.85595,-5.88539h23.54156z" fill-opacity="0.25098" fill="#ffffff" fill-rule="nonzero" stroke="none" stroke-width="1"/><path d="M262.43352,109.37644v27.17945c0,2.49146 -2.03845,4.52991 -4.5299,4.52991h-27.20209c-2.49146,0 -4.50726,-2.03846 -4.50726,-4.52991l0.02265,-36.23926c0,-2.49144 2.0158,-4.5299 4.50724,-4.5299h18.11963z" fill-opacity="0.25098" fill="#ffffff" fill-rule="nonzero" stroke="none" stroke-width="1"/><path d="M382.43352,211.66419v44.91235c0,4.11698 -3.36843,7.48539 -7.48539,7.48539h-44.94976c-4.11698,0 -7.44796,-3.36843 -7.44796,-7.48539l0.03742,-59.88312c0,-4.11695 3.331,-7.48539 7.44795,-7.48539h29.94156z" data-paper-data="{&quot;index&quot;:null}" fill-opacity="0.25098" fill="#ffffff" fill-rule="nonzero" stroke="none" stroke-width="1"/><path d="M312.43352,222.86419v35.31235c0,3.23697 -2.64842,5.88539 -5.88539,5.88539h-35.34176c-3.23697,0 -5.85596,-2.64843 -5.85596,-5.88539l0.02942,-47.08312c0,-3.23695 2.61899,-5.88539 5.85595,-5.88539h23.54156z" data-paper-data="{&quot;index&quot;:null}" fill-opacity="0.25098" fill="#ffffff" fill-rule="nonzero" stroke="none" stroke-width="1"/><path d="M255.43352,232.35257v27.17945c0,2.49146 -2.03846,4.52991 -4.52991,4.52991h-27.20209c-2.49146,0 -4.50725,-2.03846 -4.50725,-4.52991l0.02264,-36.23926c0,-2.49144 2.01581,-4.52991 4.50725,-4.52991h18.11963z" data-paper-data="{&quot;index&quot;:null}" fill-opacity="0.25098" fill="#ffffff" fill-rule="nonzero" stroke="none" stroke-width="1"/><g><path d="M341.19817,169.62262l-7.52627,53.29587c-0.68991,4.88546 -5.25157,8.31818 -10.13702,7.62827l-53.34029,-7.53254c-4.88546,-0.68991 -8.27377,-5.24529 -7.58386,-10.13074l10.07944,-71.05489c0.68991,-4.88544 5.20716,-8.32445 10.09261,-7.63454l35.53059,5.01751z" fill="none" fill-rule="nonzero" stroke-opacity="0.14902" stroke="#000000" stroke-width="8.5"/><path d="M341.19817,169.62262l-7.52627,53.29587c-0.68991,4.88546 -5.25157,8.31818 -10.13702,7.62827l-53.34029,-7.53254c-4.88546,-0.68991 -8.27377,-5.24529 -7.58386,-10.13074l10.07944,-71.05489c0.68991,-4.88544 5.20716,-8.32445 10.09261,-7.63454l35.53059,5.01751z" fill="#ffffff" fill-rule="nonzero" stroke="none" stroke-width="1"/><path d="M309.84326,200.61919c0.0415,-0.38178 0.03594,-1.01994 -0.01906,-2.11732c-0.03179,-0.61949 -0.22565,-3.78652 -0.27562,-4.67322c-0.14056,-2.47988 -0.25146,-4.90588 -0.33956,-7.64299c-0.16523,-5.27015 0.19659,-7.489 1.54186,-7.89167c0.64864,-0.19417 1.305,0.08489 2.18118,0.74287c0.46526,0.34774 2.42318,2.03813 2.29862,1.9348c2.21533,1.85595 3.91451,2.75688 5.73918,2.73377c1.89966,-0.02619 3.06055,0.35765 3.39708,1.24755c0.31468,0.83338 -0.22532,1.72748 -1.26426,2.52999c-2.05389,1.59349 -5.27461,2.37862 -7.47174,1.45832c-0.96347,-0.40939 -1.42808,-0.7794 -2.68123,-1.95281l-0.10437,-0.09673c-0.04475,0.73045 0.02227,2.16499 0.21921,4.75595c0.12831,1.67801 0.95336,11.54892 1.20406,14.67427l0.00036,0.01496c0.18956,3.30309 -3.09422,5.43233 -7.19085,4.85382c-4.0077,-0.56596 -7.40909,-3.51626 -7.58,-6.69619c-0.19147,-3.30708 3.09594,-5.4445 7.18892,-4.86651c0.8186,0.1156 1.62622,0.33527 2.41034,0.65099c0.26671,0.10848 0.51082,0.21874 0.74258,0.3372zM288.10923,204.9922c0.04253,-0.38909 0.03452,-1.03629 -0.02522,-2.16169c-0.03049,-0.57582 -0.21957,-3.68005 -0.27613,-4.66956c-0.13791,-2.45465 -0.24445,-4.86761 -0.33233,-7.58854c-0.16523,-5.27015 0.19778,-7.48883 1.54167,-7.89046c0.65108,-0.19382 1.30534,0.08246 2.18118,0.74287c0.46649,0.34791 2.42335,2.03691 2.2988,1.93359c2.21412,1.85578 3.91205,2.75653 5.73431,2.73308c1.89896,-0.03003 3.06126,0.35279 3.39777,1.24268c0.31468,0.83338 -0.22515,1.72626 -1.26182,2.53033c-2.05651,1.59436 -5.27686,2.37708 -7.46947,1.45118c-0.96103,-0.40905 -1.42581,-0.77784 -2.67881,-1.95246l-0.10454,-0.09553c-0.04475,0.73045 0.02228,2.16499 0.21938,4.75474c0.12814,1.67923 0.95042,11.55223 1.20267,14.67531l0.00142,0.01636c0.17599,3.30241 -3.10901,5.44018 -7.1898,4.86391c-4.00405,-0.56544 -7.40457,-3.52184 -7.58768,-6.71219c-0.17929,-3.30536 3.10866,-5.43774 7.19676,-4.86043c1.10242,0.15568 2.17051,0.49288 3.15309,0.98697z" fill="#bf8b11" fill-rule="evenodd" stroke-opacity="0.1" stroke="#000000" stroke-width="0"/><path d="M309.45304,169.69521l3.45664,-24.47752l21.02088,27.93415z" data-paper-data="{&quot;noHover&quot;:false,&quot;origItem&quot;:[&quot;Path&quot;,{&quot;applyMatrix&quot;:true,&quot;segments&quot;:[[442.12499,125.75002],[407.75,91.37503],[407.75,125.75004]],&quot;closed&quot;:true,&quot;fillColor&quot;:[0,0,0,1]}]}" fill="#fcb103" fill-rule="nonzero" stroke="none" stroke-width="0.5"/></g><g fill-rule="nonzero"><path d="M212.94196,158.81579l11.94433,52.48265c1.0949,4.81092 -1.94546,9.64293 -6.75638,10.73783l-52.52639,11.95428c-4.81092,1.0949 -9.59919,-1.95542 -10.69409,-6.76634l-15.88203,-69.98682c-1.09489,-4.8109 1.90175,-9.63298 6.71264,-10.72787l34.98844,-7.96288z" fill="none" stroke-opacity="0.14902" stroke="#000000" stroke-width="8.5"/><path d="M212.94196,158.81579l11.94433,52.48265c1.0949,4.81092 -1.94546,9.64293 -6.75638,10.73783l-52.52639,11.95428c-4.81092,1.0949 -9.59919,-1.95542 -10.69409,-6.76634l-15.88203,-69.98682c-1.09489,-4.8109 1.90175,-9.63298 6.71264,-10.72787l34.98844,-7.96288z" fill="#ffffff" stroke="none" stroke-width="1"/><path d="M185.37477,219.52103l-7.9319,-34.85228l8.71305,-1.98297l7.9319,34.85228z" data-paper-data="{&quot;noHover&quot;:false,&quot;origItem&quot;:[&quot;Path&quot;,{&quot;applyMatrix&quot;:true,&quot;segments&quot;:[[127.93334,157.21668],[108.33334,157.21668],[108.33334,162.11668],[127.93334,162.11668]],&quot;closed&quot;:true,&quot;fillColor&quot;:[0,0,0,1]}]}" fill="#bf8b11" stroke="none" stroke-width="0.5"/><path d="M200.23657,184.1537l-34.85226,7.93189l-1.98297,-8.71305l34.85226,-7.93189z" data-paper-data="{&quot;noHover&quot;:false,&quot;origItem&quot;:[&quot;Path&quot;,{&quot;applyMatrix&quot;:true,&quot;segments&quot;:[[127.93334,147.41668],[108.33334,147.41668],[108.33334,152.31668],[127.93334,152.31668]],&quot;closed&quot;:true,&quot;fillColor&quot;:[0,0,0,1]}]}" fill="#bf8b11" stroke="none" stroke-width="0.5"/><path d="M183.30334,170.18729l-5.48575,-24.10403l29.58977,18.61828z" data-paper-data="{&quot;noHover&quot;:false,&quot;origItem&quot;:[&quot;Path&quot;,{&quot;applyMatrix&quot;:true,&quot;segments&quot;:[[681.24998,262.5],[612.5,193.75002],[612.5,262.50004]],&quot;closed&quot;:true,&quot;fillColor&quot;:[0,0,0,1]}]}" fill="#fcb103" stroke="none" stroke-width="0.5"/></g><g fill-rule="nonzero"><path d="M277.96047,152.69905v53.82469c0,4.93394 -4.03685,8.97078 -8.97078,8.97078h-53.86953c-4.93395,0 -8.92592,-4.03685 -8.92592,-8.97078l0.04484,-71.76624c0,-4.93391 3.992,-8.97078 8.92591,-8.97078h35.88312z" fill="none" stroke-opacity="0.14902" stroke="#000000" stroke-width="8.5"/><path d="M277.96047,152.69905v53.82469c0,4.93394 -4.03685,8.97078 -8.97078,8.97078h-53.86953c-4.93395,0 -8.92592,-4.03685 -8.92592,-8.97078l0.04484,-71.76624c0,-4.93391 3.992,-8.97078 8.92591,-8.97078h35.88312z" fill="#ffffff" stroke="none" stroke-width="1"/><path d="M246.51917,157.22793v-24.75685l24.75683,24.75683z" data-paper-data="{&quot;noHover&quot;:false,&quot;origItem&quot;:[&quot;Path&quot;,{&quot;applyMatrix&quot;:true,&quot;segments&quot;:[[81.74375,131.7125],[61.7375,111.70626],[61.7375,131.71251]],&quot;closed&quot;:true,&quot;fillColor&quot;:[0,0,0,1]}]}" fill="#fcb103" stroke="none" stroke-width="0.5"/><g stroke="none" stroke-width="1"><path d="M243.55466,168.88138c0,0 1.00863,1.36844 1.77588,2.99938c1.68467,3.73037 2.76766,9.26593 2.16793,15.89066c-0.55305,6.11026 -1.07481,10.03158 -2.86031,13.14153c-0.24476,0.42636 0.70251,0.97349 0.70251,0.97349c-0.40119,0 -0.93354,0.04914 -0.93354,0.04914c0.03995,0.50425 0.87337,0.65649 0.87337,0.65649c-1.00595,0.49261 -1.3939,-0.05385 -1.47662,-0.20149c0.05868,0.14605 0.14747,0.28321 0.23368,0.39592c0.16389,0.03752 0.26016,0.08326 0.26016,0.08326c2.07093,0.75083 3.3994,2.22284 3.3994,2.22284h-8.8144c0.35891,-0.36573 0.77293,-0.65951 1.1944,-0.89474c-0.46695,0.25054 -0.89867,0.54979 -1.1944,0.89474h-6.05685c-0.12033,0 -5.21426,-5.36378 -5.37479,-11.69571c-0.16052,-6.33193 1.57059,-12.43205 2.88799,-15.26103c1.52943,-3.28514 4.08627,-9.51834 4.26676,-10.25955c0.18049,-0.74091 0.00675,-3.75435 1.16506,-5.25173c0.80479,-1.04049 2.37971,-1.54239 3.42275,-1.54239l4.16642,1.66363c1.65458,1.82988 -0.27075,4.05321 -0.27075,4.05321c0,0 -0.67627,1.3459 0.18555,1.73256c0.00059,0.31993 0.27979,0.34978 0.27979,0.34978zM243.12522,202.36129c-0.0003,-0.00028 -0.00053,-0.00049 -0.00069,-0.00063c0.0419,0.14718 0.11172,0.28135 0.19207,0.39929c0.07529,-0.01132 0.14783,-0.01772 0.21701,-0.02032c-0.24086,-0.17908 -0.39625,-0.36373 -0.4084,-0.37834zM242.04518,203.44276c0.01164,-0.01165 0.02328,-0.02312 0.03491,-0.03442c-0.21995,0.06194 -0.48721,0.14555 -0.77566,0.25004c0.27159,-0.09235 0.52387,-0.16272 0.74075,-0.21562z" fill="#e3a066"/><path d="M244.2977,202.86975c2.07093,0.75083 3.3994,2.22284 3.3994,2.22284h-8.8144c0.35891,-0.36573 0.77292,-0.65951 1.19439,-0.89474c-0.46695,0.25054 -0.89866,0.54979 -1.19439,0.89474h-6.05685c-0.12033,0 -5.21427,-5.36378 -5.37479,-11.69571c-0.16052,-6.33193 1.57059,-12.43205 2.88799,-15.26103c1.52943,-3.28514 4.08628,-9.51834 4.26677,-10.25955c0.18049,-0.74091 0.00675,-3.75435 1.16506,-5.25173c0.80479,-1.04049 2.37971,-1.54239 3.42275,-1.54239l4.16642,1.66363c0.14031,-0.13117 0.4539,0.56672 1.06808,0.87719c0.65726,0.3325 1.57925,0.81667 3.09834,1.02842c1.51933,0.21175 2.82807,0.62019 3.38449,1.20992c0.55666,0.58992 0.84233,1.24015 0.84233,1.24015c0,0 -0.70684,-1.10419 -4.91874,-0.68046c-3.20326,0.16468 -3.47463,0.64607 -3.94729,0.95408c-0.09528,0.41485 -0.09863,0.93833 0.3876,1.15646c0.00059,0.31993 0.2798,0.34978 0.2798,0.34978c0,0 1.00863,1.36843 1.77588,2.99937c1.68467,3.73037 2.76766,9.26594 2.16793,15.89066c-0.55305,6.11026 -1.07481,10.03158 -2.86031,13.14153c-0.24476,0.42636 0.70251,0.97349 0.70251,0.97349c-0.40119,0 -0.93354,0.04914 -0.93354,0.04914c0.03995,0.50425 0.87338,0.65648 0.87338,0.65648c-1.00596,0.49261 -1.39392,-0.05385 -1.47662,-0.20149c0.05868,0.14605 0.14748,0.28321 0.23369,0.39592c0.16389,0.03752 0.26016,0.08326 0.26016,0.08326zM242.04518,203.44276c0.01164,-0.01165 0.02328,-0.02312 0.03491,-0.03442c-0.21995,0.06194 -0.48721,0.14555 -0.77566,0.25004c0.27159,-0.09235 0.52387,-0.16272 0.74075,-0.21562zM243.31659,202.75995c0.07529,-0.01132 0.14783,-0.01772 0.21701,-0.02032c-0.24086,-0.17908 -0.39625,-0.36373 -0.4084,-0.37834c-0.0003,-0.00028 -0.00053,-0.00049 -0.00069,-0.00063c0.0419,0.14718 0.11172,0.28135 0.19207,0.39929z" fill="#bf8b11"/><path d="M243.0893,166.79905c0,0 -0.67628,1.3459 0.18555,1.73256c0.00059,0.31993 0.2798,0.34978 0.2798,0.34978c0,0 1.00863,1.36844 1.77588,2.99938c1.68467,3.73037 2.76766,9.26593 2.16793,15.89066c-0.55305,6.11026 -1.07481,10.03158 -2.86031,13.14153c-0.24476,0.42636 0.70251,0.97349 0.70251,0.97349c-0.40119,0 -0.93354,0.04914 -0.93354,0.04914c0.03995,0.50425 0.87338,0.65649 0.87338,0.65649c-1.00595,0.49261 -1.39391,-0.05385 -1.47662,-0.20149c0.05868,0.14605 0.14748,0.28321 0.23369,0.39592c0.16389,0.03752 0.26016,0.08326 0.26016,0.08326c2.07093,0.75083 3.3994,2.22284 3.3994,2.22284h-8.8144c0.35891,-0.36573 0.77293,-0.65951 1.1944,-0.89474c-0.46695,0.25054 -0.89867,0.54979 -1.1944,0.89474h-6.05685c-0.12033,0 -5.21427,-5.36378 -5.37479,-11.69571c-0.16052,-6.33193 1.57059,-12.43205 2.88799,-15.26103c1.52943,-3.28514 4.08627,-9.51834 4.26676,-10.25955c0.18049,-0.74091 0.00675,-3.75435 1.16506,-5.25173c0.80479,-1.04049 2.37971,-1.54239 3.42275,-1.54239c0,0 1.54001,0.09021 2.29294,0.39084c0.60167,0.24024 1.87348,1.27279 1.87348,1.27279c1.65458,1.82988 -0.27075,4.05321 -0.27075,4.05321zM243.12522,202.36129c-0.0003,-0.00028 -0.00053,-0.00049 -0.00069,-0.00063c0.0419,0.14718 0.11172,0.28135 0.19207,0.39929c0.07529,-0.01132 0.14783,-0.01772 0.21701,-0.02032c-0.24086,-0.17908 -0.39625,-0.36373 -0.4084,-0.37834zM242.04518,203.44276c0.01164,-0.01165 0.02328,-0.02312 0.03491,-0.03442c-0.21995,0.06194 -0.48721,0.14555 -0.77566,0.25004c0.27159,-0.09235 0.52387,-0.16272 0.74075,-0.21562z" fill="#bf8b11"/></g></g><g fill="#ffffff" fill-rule="evenodd"><path d="M120.1103,240.28609c2.07178,-1.76517 3.04512,-4.50112 2.5537,-7.17817l-1.11352,-6.08794c-0.52352,-2.87985 3.09723,-4.60039 4.99483,-2.37349l4.02004,4.70617c1.76431,2.07106 4.49854,3.04506 7.17488,2.55588l6.08794,-1.11351c2.87985,-0.52352 4.60039,3.09723 2.3754,4.99886l-4.70785,4.01652c-2.06855,1.76488 -3.04091,4.49764 -2.55209,7.17247l1.11023,6.09012c0.52704,2.87818 -3.0932,4.59848 -4.99534,2.37373l-4.01652,-4.70785c-1.76588,-2.06952 -4.50068,-3.04133 -7.17649,-2.55017l-6.08844,1.11376c-2.87935,0.52328 -4.59989,-3.09747 -2.3754,-4.99886z" stroke-opacity="0.129" stroke="#000000" stroke-width="8"/><path d="M120.1103,240.28609c2.07178,-1.76517 3.04512,-4.50112 2.5537,-7.17817l-1.11352,-6.08794c-0.52352,-2.87985 3.09723,-4.60039 4.99483,-2.37349l4.02004,4.70617c1.76431,2.07106 4.49854,3.04506 7.17488,2.55588l6.08794,-1.11351c2.87985,-0.52352 4.60039,3.09723 2.3754,4.99886l-4.70785,4.01652c-2.06855,1.76488 -3.04091,4.49764 -2.55209,7.17247l1.11023,6.09012c0.52704,2.87818 -3.0932,4.59848 -4.99534,2.37373l-4.01652,-4.70785c-1.76588,-2.06952 -4.50068,-3.04133 -7.17649,-2.55017l-6.08844,1.11376c-2.87935,0.52328 -4.59989,-3.09747 -2.3754,-4.99886z" stroke="none" stroke-width="1"/></g><g fill="#ffffff" fill-rule="evenodd"><path d="M307.18818,129.08116c1.90238,-2.98164 2.07053,-6.75144 0.44115,-9.89061l-3.70039,-7.14039c-1.74644,-3.37893 2.09751,-6.89461 5.30272,-4.84988l6.78585,4.31744c2.9803,1.90181 6.74821,2.07144 9.88734,0.44511l7.1404,-3.70039c3.37893,-1.74644 6.89461,2.09751 4.85379,5.30699l-4.32087,6.78211c-1.89848,2.98005 -2.06663,6.74551 -0.44131,9.88291l3.69714,7.14435c1.75018,3.37551 -2.09322,6.8907 -5.30325,4.85037l-6.78211,-4.32087c-2.98166,-1.89931 -6.74945,-2.06599 -9.88717,-0.43741l-7.14092,3.70089c-3.3784,1.74594 -6.89407,-2.09799 -4.85379,-5.307z" stroke-opacity="0.129" stroke="#000000" stroke-width="8"/><path d="M307.18818,129.58116c1.90238,-2.98164 2.07053,-6.75144 0.44115,-9.89061l-3.70039,-7.14039c-1.74644,-3.37893 2.09751,-6.89461 5.30272,-4.84988l6.78585,4.31744c2.9803,1.90181 6.74821,2.07144 9.88734,0.44511l7.1404,-3.70039c3.37893,-1.74644 6.89461,2.09751 4.85379,5.30699l-4.32087,6.78211c-1.89848,2.98005 -2.06663,6.74551 -0.44131,9.88291l3.69714,7.14435c1.75018,3.37551 -2.09322,6.8907 -5.30325,4.85037l-6.78211,-4.32087c-2.98166,-1.89931 -6.74945,-2.06599 -9.88717,-0.43741l-7.14092,3.70089c-3.3784,1.74594 -6.89407,-2.09799 -4.85379,-5.307z" stroke="none" stroke-width="1"/></g><g fill="#ffffff" fill-rule="evenodd"><path d="M343.77131,193.34392c2.04487,-0.93547 3.43576,-2.89035 3.64919,-5.12889l0.48858,-5.08981c0.23368,-2.40697 3.49958,-2.95749 4.50531,-0.75945l2.13323,4.64739c0.93496,2.04411 2.88831,3.43513 5.12579,3.65018l5.08981,0.48859c2.40697,0.23368 2.95749,3.49958 0.76006,4.50894l-4.64793,2.13005c-2.04223,0.93598 -3.43163,2.88853 -3.64662,5.12473l-0.49169,5.0908c-0.2305,2.40643 -3.49594,2.95688 -4.50576,0.75953l-2.13005,-4.64793c-0.93655,-2.04324 -2.89086,-3.43265 -5.12835,-3.64601l-5.09026,-0.4885c-2.40651,-0.23376 -2.95703,-3.49965 -0.76006,-4.50894z" stroke-opacity="0.129" stroke="#000000" stroke-width="8"/><path d="M343.77131,193.34392c2.04487,-0.93547 3.43576,-2.89035 3.64919,-5.12889l0.48858,-5.08981c0.23368,-2.40697 3.49958,-2.95749 4.50531,-0.75945l2.13323,4.64739c0.93496,2.04411 2.88831,3.43513 5.12579,3.65018l5.08981,0.48859c2.40697,0.23368 2.95749,3.49958 0.76006,4.50894l-4.64793,2.13005c-2.04223,0.93598 -3.43163,2.88853 -3.64662,5.12473l-0.49169,5.0908c-0.2305,2.40643 -3.49594,2.95688 -4.50576,0.75953l-2.13005,-4.64793c-0.93655,-2.04324 -2.89086,-3.43265 -5.12835,-3.64601l-5.09026,-0.4885c-2.40651,-0.23376 -2.95703,-3.49965 -0.76006,-4.50894z" stroke="none" stroke-width="1"/></g></g></g></svg>
