<svg version="1.1" xmlns="http://www.w3.org/2000/svg" xmlns:xlink="http://www.w3.org/1999/xlink" width="17" height="17" viewBox="0,0,17,17"><g transform="translate(-230.5,-172)"><g data-paper-data="{&quot;isPaintingLayer&quot;:true}" fill-rule="nonzero" stroke-linejoin="miter" stroke-miterlimit="10" stroke-dasharray="" stroke-dashoffset="0" style="mix-blend-mode: normal"><path d="M231.43422,182.94106c0,-3.35558 2.79924,-6.07581 6.25229,-6.07581c3.45304,0 6.25229,2.72023 6.25229,6.07581c0,3.35558 -1.00029,5.12978 -6.25229,5.12978c-5.25199,0 -6.25229,-1.7742 -6.25229,-5.12978zM235.00804,182.13555c0.54187,0 0.98116,-0.43929 0.98116,-0.98116c0,-0.54187 -0.43929,-0.98116 -0.98116,-0.98116c-0.54188,0 -0.98116,0.43929 -0.98116,0.98116c0,0.54188 0.43929,0.98116 0.98116,0.98116zM240.36498,182.13555c0.54188,0 0.98116,-0.43929 0.98116,-0.98116c0,-0.54187 -0.43929,-0.98116 -0.98116,-0.98116c-0.54187,0 -0.98116,0.43929 -0.98116,0.98116c0,0.54188 0.43929,0.98116 0.98116,0.98116z" fill="#ffffff" stroke="#ffffff" stroke-width="0" stroke-linecap="butt"/><path d="M233.90107,184.24055c0,-0.80516 2.64065,-2.18409 3.74856,-2.18209c1.17858,0.00214 3.66441,1.39133 3.66441,2.23204c0.00001,0.08481 -3.5471,2.37755 -3.63757,2.36866c-0.11944,-0.01173 -3.7754,-2.34208 -3.7754,-2.41861z" fill="#ffffff" stroke="#00c3ff" stroke-width="0.5" stroke-linecap="butt"/><path d="M241.24866,184.04365c0,0 -1.28406,0.37855 -1.84736,0.65032c-0.62673,0.30237 -1.74307,1.04573 -1.74307,1.04573c0,0 -1.12282,-0.72022 -1.75763,-1.01986c-0.56214,-0.26533 -1.8598,-0.65143 -1.8598,-0.65143" fill="none" stroke="#00c3ff" stroke-width="0.5" stroke-linecap="round"/><path d="" fill="#ffffff" stroke="none" stroke-width="1" stroke-linecap="butt"/><path d="" fill="#ffffff" stroke="none" stroke-width="1" stroke-linecap="butt"/><path d="M245.00696,174.31152h0.75c0.41422,0 0.75,0.33578 0.75,0.75c0,0.41422 -0.33578,0.75 -0.75,0.75h-0.75v0.75c0,0.41422 -0.33578,0.75 -0.75,0.75c-0.41422,0 -0.75,-0.33578 -0.75,-0.75v-0.75h-0.75c-0.41422,0 -0.75,-0.33578 -0.75,-0.75c0,-0.41422 0.33578,-0.75 0.75,-0.75h0.75v-0.75c0,-0.41422 0.33578,-0.75 0.75,-0.75c0.41422,0 0.75,0.33578 0.75,0.75z" fill="#ffffff" stroke="none" stroke-width="1" stroke-linecap="butt"/><path d="M235.28831,177.2004c0.24458,-0.65721 -0.80048,-1.04568 -0.80048,-1.04568c0,0 0.09242,-0.34197 1.13442,-0.52264c0.60188,-0.10436 0.89753,0.66898 0.89753,0.66898c0,0 0.01417,-1.63856 2.13028,-1.22983c0.03092,0.01084 -0.44046,0.27472 -0.50749,0.53496c-0.06703,0.26023 0.18581,0.714 0.18581,0.714c0,0 0.8351,-1.22055 2.18973,-0.26444c-0.09959,0.02053 -1.11927,0.56995 -0.6112,1.01965c2.33405,2.19908 -6.01679,2.13878 -4.61861,0.125z" fill="#ffffff" stroke="#ffffff" stroke-width="0" stroke-linecap="butt"/></g></g></svg>
