<?xml version="1.0" encoding="UTF-8"?>
<svg version="1.1" xmlns="http://www.w3.org/2000/svg" width="235" height="226">
<path d="M0 0 C13.07747337 14.98404546 25 42.78572188 25 63 C25.69222656 62.9592334 26.38445312 62.9184668 27.09765625 62.87646484 C82.81713817 59.76564397 82.81713817 59.76564397 98.58203125 73.546875 C102.06193129 77.11305356 103.19152791 79.7442348 103.5 84.6875 C103.00503006 96.67284365 94.27496678 105.20812015 86 113 C78.67650757 119.54925079 70.57386481 125.08359686 62.4375 130.5625 C61.67550293 131.07562744 60.91350586 131.58875488 60.12841797 132.11743164 C56.52119235 134.49884255 53.13090718 136.6175776 49 138 C49.35191406 138.804375 49.70382813 139.60875 50.06640625 140.4375 C53.48273437 148.57246408 56.26964006 156.781183 58.75 165.25 C59.04334229 166.24257812 59.33668457 167.23515625 59.63891602 168.2578125 C63.29670721 181.00040359 67.02781593 196.55809084 62.9375 209.6875 C60.03989748 214.6414656 56.49322212 218.16892596 51 220 C26.25933465 221.96354487 2.55321499 199.91037138 -15 185 C-18.9184267 187.92291367 -22.82728417 190.85478498 -26.68359375 193.859375 C-60.50240442 220.03258294 -60.50240442 220.03258294 -80 219 C-84.26172572 218.18209304 -87.11684468 216.81154813 -90.3125 213.875 C-97.13373838 202.2536309 -95.82998966 189.48245938 -92.75927734 176.78027344 C-85.9457534 151.83094525 -85.9457534 151.83094525 -80.85473633 141.72705078 C-79.84293542 140.01874824 -79.84293542 140.01874824 -80.046875 137.9765625 C-81.45911478 135.04790131 -83.49873341 134.06753311 -86.25 132.375 C-96.95530378 125.52207988 -106.73223172 117.71170218 -116 109 C-116.7940625 108.29359375 -117.588125 107.5871875 -118.40625 106.859375 C-125.70700572 100.09400804 -130.86925071 92.05263695 -132 82 C-131.31052812 75.79475308 -128.38316644 72.6229618 -123.73828125 68.79296875 C-104.9469078 56.48877415 -74.19460392 59.89819573 -53 62 C-52.90275635 61.35240723 -52.8055127 60.70481445 -52.70532227 60.03759766 C-49.21639372 38.79457033 -40.68919797 12.67918507 -24 -2 C-15.64565813 -7.44090521 -7.60332969 -6.49451078 0 0 Z M-17.5078125 11.0859375 C-30.78103469 26.60603742 -42 57.94177935 -42 78 C-42.71800781 77.86722656 -43.43601562 77.73445313 -44.17578125 77.59765625 C-54.09570396 75.90521614 -63.95453391 75.34307061 -74 75 C-75.134375 74.95746094 -76.26875 74.91492188 -77.4375 74.87109375 C-90.75787205 74.61623969 -104.77287451 75.33980258 -117 81 C-117.14424197 87.63513084 -114.06726674 90.69394779 -109.6171875 95.375 C-108.75351563 96.24125 -107.88984375 97.1075 -107 98 C-106.48566406 98.53987549 -105.97132812 99.07975098 -105.44140625 99.63598633 C-101.05459858 104.17595409 -96.35143369 107.97939772 -91.25 111.6875 C-90.03219849 112.58009521 -90.03219849 112.58009521 -88.78979492 113.49072266 C-80.13358934 119.75668892 -71.12100176 125.44003244 -62 131 C-62.62370574 134.65712757 -63.63868378 137.83677248 -65.07421875 141.25390625 C-65.70070313 142.76863525 -65.70070313 142.76863525 -66.33984375 144.31396484 C-67.00693359 145.92198975 -67.00693359 145.92198975 -67.6875 147.5625 C-79.83906037 174.99710697 -79.83906037 174.99710697 -80 204 C-72.38042668 206.20493147 -65.00308255 201.68759556 -58.37890625 198.08203125 C-45.4092729 190.69496421 -33.67312661 181.37805744 -22.234375 171.83984375 C-21.49703125 171.23269531 -20.7596875 170.62554687 -20 170 C-19.34515625 169.38253906 -18.6903125 168.76507813 -18.015625 168.12890625 C-16 167 -16 167 -13.60546875 167.48046875 C-10.39615179 169.35216935 -7.92804503 171.71518754 -5.3125 174.3125 C7.29091848 186.36313697 27.74500776 204.38476553 45.65625 206.28125 C46.4296875 206.1884375 47.203125 206.095625 48 206 C52.03610002 199.94584997 50.48345786 192.06571585 49.125 185.2109375 C45.19147007 167.26228486 39.09678229 149.92309623 32 133 C32.48654053 132.69932617 32.97308105 132.39865234 33.47436523 132.08886719 C66.50858467 114.14437805 66.50858467 114.14437805 88.671875 86.2421875 C88.78015625 85.50226563 88.8884375 84.76234375 89 84 C85.88585942 81.34556589 83.21635119 80.31007243 79.25 79.375 C78.26515625 79.13523437 77.2803125 78.89546875 76.265625 78.6484375 C69.42019237 77.28917695 62.81209944 76.84956657 55.85546875 76.8671875 C55.00503494 76.86623077 54.15460114 76.86527405 53.27839661 76.86428833 C51.48922654 76.86361175 49.70005394 76.86542937 47.91088867 76.86962891 C45.20550883 76.87496448 42.5002965 76.86967635 39.79492188 76.86328125 C31.1504128 76.86029431 22.59233937 76.91436552 14 78 C13.89333008 77.27586914 13.78666016 76.55173828 13.67675781 75.80566406 C12.50607079 68.29154301 10.83740744 61.05907402 8.75 53.75 C8.4413501 52.66315918 8.1327002 51.57631836 7.81469727 50.45654297 C1.70779655 27.98030652 1.70779655 27.98030652 -11 9 C-15.03111689 8.57368174 -15.03111689 8.57368174 -17.5078125 11.0859375 Z " fill="#E2BA04" transform="translate(132,6)"/>
</svg>
