<svg version="1.1" xmlns="http://www.w3.org/2000/svg" xmlns:xlink="http://www.w3.org/1999/xlink" width="300.00003" height="186.00002" viewBox="0,0,300.00003,186.00002"><g transform="translate(-90,-86.99999)"><g data-paper-data="{&quot;isPaintingLayer&quot;:true}" stroke-linejoin="miter" stroke-miterlimit="10" stroke-dasharray="" stroke-dashoffset="0" style="mix-blend-mode: normal"><path d="M90,273v-186h300v186z" fill="#a6a6a6" fill-rule="nonzero" stroke="none" stroke-width="1" stroke-linecap="butt"/><path d="M90,273v-109.76755c4.62124,-0.7257 9.7096,-1.97241 14.74175,-3.83815c12.85232,-4.76741 46.35061,-22.49704 49.96597,-41.51528v0.00001c1.68929,-8.89337 -17.02094,2.88356 -30.99418,1.52043c-13.97325,-1.36408 31.01424,-14.99842 28.96954,-22.83783c-2.04445,-7.83963 -39.47978,4.42097 -50.2209,13.29334c-16.92072,13.97584 -7.94294,19.86842 0,20.5547c11.14119,0.96266 -0.35159,10.94317 -12.46218,19.05087v-62.46053h300v6.6913c-6.73003,-0.172 -15.15594,0.82779 -23.88592,3.71697c-17.71219,5.86287 -20.07031,17.83081 -4.4863,17.66879c15.58236,-0.16202 33.29547,1.307 24.69975,4.2007c-8.59525,2.89324 -31.8696,3.43141 -24.33585,13.06292h0.00025c4.02355,5.14424 14.61495,1.19643 28.00808,5.65066v19.71054c-3.00077,-6.13069 -14.88896,-8.60611 -29.62119,-7.41667c-16.64974,1.34426 -22.60811,7.96463 -20.09364,13.72562c3.0246,6.9319 19.66939,-0.80349 20.01583,2.41212c0.62639,5.79 -22.30248,7.72502 -32.25378,14.47463c-11.90544,8.07619 -1.34073,15.91818 8.51932,11.26633c17.23744,-8.13396 30.52182,-2.71943 20.07501,1.34308c-10.44776,4.06179 -17.12283,5.72584 -19.3069,12.03915c-2.18502,6.31354 7.02057,14.54042 14.53052,7.8052c12.47177,-11.18471 27.51292,-16.01727 38.13485,-19.33162v15.30932c-13.03597,4.55505 -27.35961,13.00618 -38.3155,23.02684c-18.47699,16.89879 -7.31727,22.05556 6.99935,14.34869c11.84672,-6.37769 23.91087,-0.95749 11.55735,9.72396c-6.13178,5.30176 -11.24153,11.16952 -14.84315,16.57148zM390,273h-8.45238c2.72286,-2.65756 5.54339,-5.46723 8.45238,-8.33649zM210.46983,260.33517c-4.12287,13.51477 63.53287,-16.05993 76.67597,-26.38315c13.14334,-10.3237 8.08161,-22.40318 -1.43199,-17.71902c-9.5136,4.68322 -14.37983,-2.16355 -4.04034,-10.13149c15.4543,-11.91017 4.86552,-19.60523 -8.55705,-14.16026c-22.27512,9.03673 -64.36348,39.95074 -61.63722,46.0709c2.72625,6.11969 40.83984,-16.97968 40.17195,-6.56354c-0.66717,10.41519 -37.53697,16.94453 -41.18133,28.88653zM280.04077,260.7323c1.71759,7.86298 36.86673,-6.77861 47.80996,-20.90586c12.36721,-15.96865 -7.14487,-25.46833 -17.35135,-10.24044c-12.00804,17.91711 -31.71986,25.37187 -30.45861,31.1463zM208.22515,212.39786c-3.03567,-14.84419 -20.82403,6.00248 -27.83895,9.88456c-11.07554,6.12912 -17.02495,-1.16196 -4.65233,-9.0608c6.33855,-4.04647 4.02429,-11.21727 -7.07766,-8.51083c-7.65475,1.86593 -20.57617,5.93339 -35.8524,13.68789c-19.5498,9.92301 -21.35866,23.99742 1.79612,14.78734c7.00077,-2.78498 18.37865,1.55981 7.62455,6.71517c-22.24233,10.664 -40.14696,15.64154 -39.01636,22.23078c1.13862,6.62791 27.67953,3.64791 55.90902,-4.01509c28.08352,-7.62385 50.9843,-36.54104 49.10799,-45.71905zM218.5578,204.51128c4.57215,-1.82936 5.59448,-7.05383 1.94611,-9.24239c-3.64838,-2.18902 -10.21451,-0.73037 -10.21451,3.16208c0,3.8915 1.70321,8.70797 8.26839,6.08006zM379.99512,175.64433c-7.84859,-2.56002 6.52456,-4.84259 10.00488,-11.74218v13.78154c-3.61951,-0.60706 -7.26481,-1.1462 -10.00488,-2.03936zM312.4561,205.46593c1.95413,-2.91822 7.07294,-7.98302 4.80869,-9.93904c-2.26427,-1.95578 -9.97371,-2.20435 -14.59303,3.14369c-3.56324,4.12404 -3.45899,7.09675 -0.10659,9.42799c4.31603,3.00077 7.93632,0.28465 9.89093,-2.63263zM302.77107,175.97c8.73015,-2.08714 18.28078,-9.03014 20.94335,-16.24435c4.99782,-13.5379 12.82189,-19.44958 21.53105,-21.90745c13.38412,-3.77784 -1.536,-17.37116 -20.24883,-8.01533c-4.12311,2.0619 -11.92548,7.63824 -13.57067,11.70167c-2.7246,6.73309 -7.37269,3.39602 -4.20731,-1.87018c9.0365,-15.03097 -12.14175,-11.22104 -13.83197,10.30884c-0.90443,11.50664 -12.41437,11.49319 -17.22306,17.37022c-4.45163,5.44261 6.73191,13.40819 26.60742,8.65681zM283.83136,108.99041c-4.12383,8.42026 -10.4527,24.56933 -4.03562,28.52594c9.33247,5.75603 9.98574,-21.80983 37.93152,-24.32949c22.6824,-2.04398 19.05998,-12.66295 12.95184,-14.07512c-6.10908,-1.41383 -19.29746,4.90279 -16.09175,-2.85077c3.20643,-7.7538 -19.63235,-9.98551 -30.75623,12.72968zM116.99741,211.78774c11.67927,-2.00626 54.73361,-23.73825 47.71374,-34.90977c-7.01941,-11.17152 -22.83028,8.24434 -26.06311,3.56301c-7.44343,-10.77791 33.8919,-15.67834 35.42672,-25.89071c1.53387,-10.21261 -33.56833,-3.67055 -49.63532,8.43937c-16.06746,12.10968 -26.26405,25.11765 -12.58182,26.11287c13.68034,0.99499 -5.05064,11.15218 -9.86074,14.33738c-7.75687,5.13461 -3.63068,11.55003 15.00031,8.34786zM238.25921,192.64967c14.39256,-12.18113 29.95511,-9.55817 29.73931,-17.86429c-0.279,-10.71682 -14.68995,-4.54855 -16.21274,-8.92613c-1.92842,-5.5478 28.18799,-11.67834 20.14247,-20.93087c-8.31319,-9.56217 -31.79839,5.16197 -34.88312,-0.38346c-4.20211,-7.55711 29.56644,-5.41455 26.36144,-17.11128c-4.11816,-15.03922 -64.55898,13.10255 -74.01905,21.22754c-9.46054,8.12595 -6.44727,20.5073 10.63145,10.00319c17.0778,-10.50364 21.27306,0.15707 9.76689,5.97583c-15.58636,7.8828 -29.86595,20.50118 -27.018,26.1433c5.923,11.73447 41.72659,-24.03186 53.47402,-17.14665c3.88798,2.27935 -2.62037,4.49078 -5.1523,6.80031c-10.93946,9.97679 1.22257,17.24688 7.1694,12.2125zM204.03645,124.70552c35.3312,-17.65982 60.65733,-15.90757 68.16963,-24.28209c8.04293,-8.96788 -12.88605,-10.75951 -48.21725,0c-19.76466,6.01923 -14.71495,-1.10748 -7.34297,-4.39456c5.12613,-2.28618 5.55653,-8.38488 -11.00902,-6.25977c-16.4099,2.10413 -29.92444,8.99192 -34.29848,11.9012c-17.59332,11.70073 -10.1836,18.05438 6.85314,9.7841c6.26944,-3.04393 14.07112,0.92637 7.55569,3.90543c-14.54727,6.65197 -29.49404,27.15597 -14.33973,23.9038c11.61983,-2.49419 21.71383,-9.10206 32.629,-14.55811z" fill="#8c8c8c" fill-rule="nonzero" stroke="none" stroke-width="1" stroke-linecap="butt"/><path d="M162.30001,182.24653c0,0 5.25603,20.60461 17.5,24c12.24397,3.39539 27.42086,4.85189 37.5,-7.5c10.07914,-12.35189 -1.26324,-38.27705 13.5,-55c14.76324,-16.72295 43,-9 43,-9" fill="none" fill-rule="nonzero" stroke-opacity="0.34902" stroke="#000000" stroke-width="15" stroke-linecap="round"/><path d="M114.80162,160.87697c-0.16577,-1.53095 0.94092,-2.90641 2.47187,-3.07218l5.54405,-0.60031c1.38601,-0.15008 2.15406,0.46789 2.9221,1.08586l3.07218,2.47187c0.76805,0.61797 1.53609,1.23594 2.9221,1.08586l8.31607,-0.90046c1.38601,-0.15008 2.00398,-0.91812 2.62195,-1.68617l2.47187,-3.07218c0.61797,-0.76805 1.23594,-1.53609 2.62195,-1.68617l42.68406,-4.6218c1.53095,-0.16577 2.90641,0.94092 3.07218,2.47187l3.00153,27.72025c0.16577,1.53095 -0.94092,2.90641 -2.47187,3.07218l-42.68406,4.6218c-1.38601,0.15008 -2.00398,0.91812 -2.62195,1.68617l-2.47187,3.07218c-0.61797,0.76805 -1.23594,1.53609 -2.62195,1.68617l-8.31607,0.90046c-1.38601,0.15008 -2.15406,-0.46789 -2.9221,-1.08586l-3.07218,-2.47187c-0.76805,-0.61797 -1.53609,-1.23594 -2.9221,-1.08586l-5.54405,0.60031c-1.53095,0.16577 -2.90641,-0.94092 -3.07218,-2.47187z" fill="none" fill-rule="nonzero" stroke-opacity="0.34902" stroke="#000000" stroke-width="10" stroke-linecap="butt"/><path d="M114.80162,160.87697c-0.16577,-1.53095 0.94092,-2.90641 2.47187,-3.07218l5.54405,-0.60031c1.38601,-0.15008 2.15406,0.46789 2.9221,1.08586l3.07218,2.47187c0.76805,0.61797 1.53609,1.23594 2.9221,1.08586l8.31607,-0.90046c1.38601,-0.15008 2.00398,-0.91812 2.62195,-1.68617l2.47187,-3.07218c0.61797,-0.76805 1.23594,-1.53609 2.62195,-1.68617l42.68406,-4.6218c1.53095,-0.16577 2.90641,0.94092 3.07218,2.47187l3.00153,27.72025c0.16577,1.53095 -0.94092,2.90641 -2.47187,3.07218l-42.68406,4.6218c-1.38601,0.15008 -2.00398,0.91812 -2.62195,1.68617l-2.47187,3.07218c-0.61797,0.76805 -1.23594,1.53609 -2.62195,1.68617l-8.31607,0.90046c-1.38601,0.15008 -2.15406,-0.46789 -2.9221,-1.08586l-3.07218,-2.47187c-0.76805,-0.61797 -1.53609,-1.23594 -2.9221,-1.08586l-5.54405,0.60031c-1.53095,0.16577 -2.90641,-0.94092 -3.07218,-2.47187z" fill="#ffffff" fill-rule="nonzero" stroke="none" stroke-width="0" stroke-linecap="butt"/><g fill="none" fill-rule="nonzero" stroke-opacity="0.34902" stroke="#000000" stroke-width="10" stroke-linecap="butt"><path d="M262.41024,160.89924c0.21913,-1.64263 1.72837,-2.79659 3.371,-2.57745l5.94846,0.79355c1.48711,0.19839 2.13148,1.04114 2.77585,1.88389l2.57745,3.37101c0.64436,0.84275 1.28873,1.6855 2.77585,1.88389l8.92269,1.19032c1.48711,0.19839 2.32986,-0.44598 3.17261,-1.09034l3.37101,-2.57746c0.84275,-0.64436 1.68551,-1.28873 3.17262,-1.09034l45.79763,6.10958c1.64263,0.21913 2.79659,1.72837 2.57746,3.371l-3.96774,29.7423c-0.21913,1.64263 -1.72838,2.79659 -3.37101,2.57745l-45.79763,-6.10958c-1.48711,-0.19839 -2.32987,0.44598 -3.17262,1.09034l-3.37101,2.57745c-0.84275,0.64436 -1.6855,1.28873 -3.17261,1.09035l-8.92269,-1.19032c-1.48711,-0.19839 -2.13148,-1.04114 -2.77585,-1.88389l-2.57745,-3.371c-0.64436,-0.84275 -1.28873,-1.68551 -2.77585,-1.88389l-5.94846,-0.79355c-1.64263,-0.21913 -2.79659,-1.72837 -2.57745,-3.371zM268.27036,119.24944c19.87295,-13.27826 52.59747,-8.91268 68.29465,9.11077l30.70147,4.09569c1.57159,0.20966 2.67565,1.65364 2.466,3.22523l-3.79615,28.4561c-0.20966,1.57159 -1.65364,2.67565 -3.22523,2.466l-64.28311,-8.57561c-1.4228,-0.18981 -2.22911,0.4267 -3.03542,1.0432l-3.22523,2.46599c-0.80631,0.6165 -1.61262,1.233 -3.03542,1.0432l-8.53682,-1.13885c-1.4228,-0.18981 -2.0393,-0.99611 -2.65581,-1.80243l-2.466,-3.22522c-0.6165,-0.80631 -1.233,-1.61262 -2.6558,-1.80243l-6.25691,-0.8347c-1.57159,-0.20966 -2.67566,-1.65364 -2.466,-3.22523z"/><path d="M256.97678,201.62865c0.21913,-1.64263 1.72837,-2.79659 3.371,-2.57746l5.94846,0.79355c1.48711,0.19839 2.13148,1.04114 2.77585,1.88389l2.57745,3.37101c0.64436,0.84275 1.28873,1.6855 2.77585,1.88389l8.92269,1.19032c1.48711,0.19839 2.32986,-0.44598 3.17261,-1.09034l3.37101,-2.57746c0.84275,-0.64436 1.68551,-1.28873 3.17262,-1.09034l55.55572,7.41135c1.64263,0.21913 2.79659,1.72838 2.57745,3.37101l-3.96774,29.74229c-0.21913,1.64263 -1.72837,2.79659 -3.371,2.57745l-55.55572,-7.41135c-1.48711,-0.19839 -2.32987,0.44598 -3.17262,1.09034l-3.37101,2.57746c-0.84275,0.64436 -1.6855,1.28873 -3.17261,1.09034l-8.92269,-1.19032c-1.48711,-0.19839 -2.13148,-1.04114 -2.77585,-1.88389l-2.57745,-3.37101c-0.64436,-0.84275 -1.28873,-1.68551 -2.77585,-1.88389l-5.94846,-0.79355c-1.64263,-0.21913 -2.79659,-1.72837 -2.57745,-3.371z"/></g><g fill="#ffffff" fill-rule="nonzero" stroke="none" stroke-width="0" stroke-linecap="butt"><path d="M262.41024,160.89924c0.21913,-1.64263 1.72838,-2.79659 3.371,-2.57746l5.94846,0.79355c1.48712,0.19839 2.13148,1.04114 2.77584,1.88389l2.57746,3.371c0.64436,0.84275 1.28873,1.6855 2.77584,1.88389l8.92268,1.19032c1.48712,0.19839 2.32987,-0.44598 3.17262,-1.09034l3.371,-2.57746c0.84275,-0.64436 1.6855,-1.28873 3.17262,-1.09034l45.79763,6.10958c1.64263,0.21913 2.79659,1.72838 2.57746,3.371l-3.96774,29.74229c-0.21913,1.64263 -1.72838,2.79659 -3.371,2.57746l-45.79763,-6.10958c-1.48712,-0.19839 -2.32987,0.44598 -3.17262,1.09034l-3.371,2.57746c-0.84275,0.64436 -1.6855,1.28873 -3.17262,1.09034l-8.92268,-1.19032c-1.48712,-0.19839 -2.13148,-1.04114 -2.77584,-1.88389l-2.57746,-3.371c-0.64436,-0.84275 -1.28873,-1.6855 -2.77584,-1.88389l-5.94846,-0.79355c-1.64263,-0.21913 -2.79659,-1.72838 -2.57746,-3.371zM268.27036,119.24944c19.87295,-13.27826 52.59747,-8.91268 68.29466,9.11077l30.70147,4.09569c1.57159,0.20966 2.67566,1.65364 2.466,3.22523l-3.79615,28.4561c-0.20966,1.57159 -1.65364,2.67565 -3.22523,2.46599l-64.28311,-8.57561c-1.4228,-0.18981 -2.22911,0.4267 -3.03542,1.04319l-3.22523,2.46599c-0.80631,0.6165 -1.61262,1.233 -3.03542,1.04319l-8.53682,-1.13885c-1.4228,-0.18981 -2.0393,-0.99611 -2.65581,-1.80243l-2.466,-3.22522c-0.6165,-0.80631 -1.233,-1.61262 -2.6558,-1.80242l-6.25691,-0.8347c-1.57159,-0.20966 -2.67566,-1.65364 -2.466,-3.22523z"/><path d="M262.41024,160.89924c0.21913,-1.64263 1.72838,-2.79659 3.371,-2.57746l5.94846,0.79355c1.48712,0.19839 2.13148,1.04114 2.77584,1.88389l2.57746,3.371c0.64436,0.84275 1.28873,1.6855 2.77584,1.88389l8.92268,1.19032c1.48712,0.19839 2.32987,-0.44598 3.17262,-1.09034l3.371,-2.57746c0.84275,-0.64436 1.6855,-1.28873 3.17262,-1.09034l45.79763,6.10958c1.64263,0.21913 2.79659,1.72838 2.57746,3.371l-3.96774,29.74229c-0.21913,1.64263 -1.72838,2.79659 -3.371,2.57746l-45.79763,-6.10958c-1.48712,-0.19839 -2.32987,0.44598 -3.17262,1.09034l-3.371,2.57746c-0.84275,0.64436 -1.6855,1.28873 -3.17262,1.09034l-8.92268,-1.19032c-1.48712,-0.19839 -2.13148,-1.04114 -2.77584,-1.88389l-2.57746,-3.371c-0.64436,-0.84275 -1.28873,-1.6855 -2.77584,-1.88389l-5.94846,-0.79355c-1.64263,-0.21913 -2.79659,-1.72838 -2.57746,-3.371zM256.97678,201.62865c0.21913,-1.64263 1.72838,-2.79659 3.371,-2.57746l5.94846,0.79355c1.48712,0.19839 2.13148,1.04114 2.77584,1.88389l2.57746,3.371c0.64436,0.84275 1.28873,1.6855 2.77584,1.88389l8.92268,1.19032c1.48712,0.19839 2.32987,-0.44598 3.17262,-1.09034l3.371,-2.57746c0.84275,-0.64436 1.6855,-1.28873 3.17262,-1.09034l55.55572,7.41135c1.64263,0.21913 2.79659,1.72838 2.57746,3.371l-3.96774,29.74229c-0.21913,1.64263 -1.72838,2.79659 -3.371,2.57746l-55.55572,-7.41135c-1.48712,-0.19839 -2.32987,0.44598 -3.17262,1.09034l-3.371,2.57746c-0.84275,0.64436 -1.6855,1.28873 -3.17262,1.09034l-8.92268,-1.19032c-1.48712,-0.19839 -2.13148,-1.04114 -2.77584,-1.88389l-2.57746,-3.371c-0.64436,-0.84275 -1.28873,-1.6855 -2.77584,-1.88389l-5.94846,-0.79355c-1.64263,-0.21913 -2.79659,-1.72838 -2.57746,-3.371z"/></g><path d="M162.3,182.24652c0,0 6.39701,20.6691 17.5,24c11.10299,3.3309 27.42086,4.85189 37.5,-7.5c10.07914,-12.35189 -1.26323,-38.27704 13.5,-55c14.76323,-16.72296 43,-9 43,-9" fill="none" fill-rule="nonzero" stroke="#ffffff" stroke-width="6" stroke-linecap="round"/><g fill="#ffffff" fill-rule="evenodd" stroke-linecap="butt"><path d="M192.30201,114.19933c2.19327,-0.07174 4.18159,-1.30732 5.21717,-3.24203l2.35709,-4.3976c1.11714,-2.07827 4.26394,-1.34353 4.34174,1.01375l0.16946,4.98753c0.07175,2.19327 1.30732,4.18159 3.23854,5.21634l4.3976,2.35709c2.07827,1.11714 1.34353,4.26393 -1.01456,4.34525l-4.98671,0.16597c-2.18976,0.07256 -4.17807,1.30814 -5.21285,3.23936l-2.36059,4.39679c-1.11364,2.07909 -4.26044,1.34434 -4.34174,-1.01375l-0.16597,-4.98671c-0.07257,-2.18976 -1.30814,-4.17807 -3.24286,-5.21367l-4.3976,-2.35709c-2.07827,-1.11714 -1.34353,-4.26393 1.01456,-4.34525z" stroke-opacity="0.34902" stroke="#000000" stroke-width="10"/><path d="M192.30201,114.19933c2.19327,-0.07174 4.18159,-1.30732 5.21717,-3.24203l2.35709,-4.3976c1.11714,-2.07827 4.26394,-1.34353 4.34174,1.01375l0.16946,4.98753c0.07175,2.19327 1.30732,4.18159 3.23854,5.21634l4.3976,2.35709c2.07827,1.11714 1.34353,4.26393 -1.01456,4.34525l-4.98671,0.16597c-2.18976,0.07256 -4.17807,1.30814 -5.21285,3.23936l-2.36059,4.39679c-1.11364,2.07909 -4.26044,1.34434 -4.34174,-1.01375l-0.16597,-4.98671c-0.07257,-2.18976 -1.30814,-4.17807 -3.24286,-5.21367l-4.3976,-2.35709c-2.07827,-1.11714 -1.34353,-4.26393 1.01456,-4.34525z" stroke="none" stroke-width="1"/></g><g fill="#ffffff" fill-rule="evenodd" stroke-linecap="butt"><path d="M213.42155,233.83806c2.08255,0.69179 4.37563,0.22073 6.01681,-1.236l3.73343,-3.31003c1.76739,-1.56318 4.46542,0.21527 3.72255,2.45378l-1.5672,4.73793c-0.69178,2.08255 -0.22073,4.37563 1.233,6.01482l3.31003,3.73343c1.56318,1.76739 -0.21526,4.46541 -2.45576,3.72556l-4.73596,-1.5702c-2.07954,-0.68981 -4.3726,-0.21874 -6.01182,1.23498l-3.73643,3.30805c-1.76438,1.56516 -4.46241,-0.21328 -3.72255,-2.45378l1.5702,-4.73596c0.6898,-2.07955 0.21874,-4.3726 -1.23799,-6.01381l-3.31003,-3.73343c-1.56318,-1.76739 0.21526,-4.46541 2.45576,-3.72556z" stroke-opacity="0.34902" stroke="#000000" stroke-width="10"/><path d="M213.42155,233.83806c2.08255,0.69179 4.37563,0.22073 6.01681,-1.236l3.73343,-3.31003c1.76739,-1.56318 4.46542,0.21527 3.72255,2.45378l-1.5672,4.73793c-0.69178,2.08255 -0.22073,4.37563 1.233,6.01482l3.31003,3.73343c1.56318,1.76739 -0.21526,4.46541 -2.45576,3.72556l-4.73596,-1.5702c-2.07954,-0.68981 -4.3726,-0.21874 -6.01182,1.23498l-3.73643,3.30805c-1.76438,1.56516 -4.46241,-0.21328 -3.72255,-2.45378l1.5702,-4.73596c0.6898,-2.07955 0.21874,-4.3726 -1.23799,-6.01381l-3.31003,-3.73343c-1.56318,-1.76739 0.21526,-4.46541 2.45576,-3.72556z" stroke="none" stroke-width="1"/></g><g fill="#ffffff" fill-rule="evenodd" stroke-linecap="butt"><path d="M141.3588,217.69696c1.02249,0.85668 2.42399,1.10314 3.67742,0.64669l2.85046,-1.03623c1.34854,-0.48841 2.47596,1.12015 1.55554,2.21937l-1.94527,2.32773c-0.85669,1.0225 -1.10315,2.424 -0.64795,3.67563l1.03623,2.85046c0.48841,1.34855 -1.12014,2.47597 -2.22116,1.55679l-2.32593,-1.94652c-1.02124,-0.8549 -2.42274,-1.10135 -3.67436,-0.64616l-2.85172,1.03444c-1.34729,0.4902 -2.47471,-1.11835 -1.55554,-2.21937l1.94652,-2.32593c0.8549,-1.02124 1.10135,-2.42274 0.64489,-3.67615l-1.03623,-2.85046c-0.48841,-1.34855 1.12014,-2.47597 2.22116,-1.55679z" stroke-opacity="0.34902" stroke="#000000" stroke-width="10"/><path d="M141.3588,217.69696c1.02249,0.85668 2.42399,1.10314 3.67742,0.64669l2.85046,-1.03623c1.34854,-0.48841 2.47596,1.12015 1.55554,2.21937l-1.94527,2.32773c-0.85669,1.0225 -1.10315,2.424 -0.64795,3.67563l1.03623,2.85046c0.48841,1.34855 -1.12014,2.47597 -2.22116,1.55679l-2.32593,-1.94652c-1.02124,-0.8549 -2.42274,-1.10135 -3.67436,-0.64616l-2.85172,1.03444c-1.34729,0.4902 -2.47471,-1.11835 -1.55554,-2.21937l1.94652,-2.32593c0.8549,-1.02124 1.10135,-2.42274 0.64489,-3.67615l-1.03623,-2.85046c-0.48841,-1.34855 1.12014,-2.47597 2.22116,-1.55679z" stroke="none" stroke-width="1"/></g></g></g></svg>
