<svg xmlns="http://www.w3.org/2000/svg" xmlns:xlink="http://www.w3.org/1999/xlink" version="1.1" width="57.15268003940582" height="57.052380204200745" viewBox="-0.43313924968242645 -0.44443925097584724 57.15268003940582 57.052380204200745">
  <!-- Exported by Scratch - http://scratch.mit.edu/ -->
  <path id="ID0.0757432202808559" fill="#70C5CE" stroke="none" d="M 0.0682 0.0569 L 56.2182 0.0569 L 56.2182 56.1066 L 0.0682 56.1066 L 0.0682 0.0569 Z " stroke-width="1.0026785135269165"/>
  <g id="ID0.5474863699637353">
    <g id="ID0.9548296565189958">
      <path id="ID0.5195635338313878" fill="#1D1D1B" d="M 28.1538 13.7365 C 20.205 13.7365 13.7365 20.205 13.7365 28.1538 C 13.7365 36.1027 20.205 42.5711 28.1538 42.5711 C 36.1027 42.5711 42.5711 36.1027 42.5711 28.1538 C 42.5711 20.205 36.1027 13.7365 28.1538 13.7365 Z M 28.1538 38.4519 C 22.4657 38.4519 17.8558 33.842 17.8558 28.1538 C 17.8558 22.4657 22.4657 17.8558 28.1538 17.8558 C 33.842 17.8558 38.4519 22.4657 38.4519 28.1538 C 38.4519 33.842 33.842 38.4519 28.1538 38.4519 Z M 28.1538 9.6173 C 29.2909 9.6173 30.2135 8.6947 30.2135 7.5577 L 30.2135 3.4385 C 30.2135 2.3014 29.2909 1.3788 28.1538 1.3788 C 27.0168 1.3788 26.0942 2.3014 26.0942 3.4385 L 26.0942 7.5577 C 26.0942 8.6947 27.0168 9.6173 28.1538 9.6173 Z M 28.1538 46.6904 C 27.0168 46.6904 26.0942 47.613 26.0942 48.75 L 26.0942 52.8692 C 26.0942 54.0063 27.0168 54.9288 28.1538 54.9288 C 29.2909 54.9288 30.2135 54.0063 30.2135 52.8692 L 30.2135 48.75 C 30.2135 47.613 29.2909 46.6904 28.1538 46.6904 Z M 44.1722 15.0453 L 47.0847 12.1329 C 47.8892 11.3283 47.8892 10.025 47.0847 9.2204 C 46.2801 8.4159 44.9768 8.4159 44.1722 9.2204 L 41.2598 12.1329 C 40.4553 12.9374 40.4553 14.2408 41.2598 15.0453 C 42.0642 15.8498 43.3677 15.8498 44.1722 15.0453 Z M 12.1354 41.2625 L 9.223 44.1749 C 8.4185 44.9794 8.4185 46.2827 9.223 47.0872 C 10.0276 47.8918 11.3309 47.8918 12.1354 47.0872 L 15.0479 44.1749 C 15.8524 43.3677 15.8524 42.0669 15.0479 41.2625 C 14.2435 40.4579 12.94 40.4552 12.1354 41.2625 Z M 9.6173 28.1538 C 9.6173 27.0168 8.6947 26.0942 7.5577 26.0942 L 3.4385 26.0942 C 2.3014 26.0942 1.3788 27.0168 1.3788 28.1538 C 1.3788 29.2909 2.3014 30.2135 3.4385 30.2135 L 7.5577 30.2135 C 8.6947 30.2135 9.6173 29.2909 9.6173 28.1538 Z M 52.8692 26.0942 L 48.75 26.0942 C 47.613 26.0942 46.6904 27.0168 46.6904 28.1538 C 46.6904 29.2909 47.613 30.2135 48.75 30.2135 L 52.8692 30.2135 C 54.0063 30.2135 54.9288 29.2909 54.9288 28.1538 C 54.9288 27.0168 54.0063 26.0942 52.8692 26.0942 Z M 12.1327 15.0453 C 12.9374 15.8498 14.2408 15.8498 15.0452 15.0453 C 15.8498 14.2408 15.8498 12.9374 15.0452 12.1329 L 12.1327 9.2204 C 11.3282 8.4159 10.025 8.4159 9.2203 9.2204 C 8.4158 10.025 8.4158 11.3283 9.2203 12.1329 L 12.1327 15.0453 Z M 44.1749 41.2597 C 43.3677 40.4552 42.0669 40.4552 41.2625 41.2597 C 40.4579 42.0642 40.4553 43.3676 41.2625 44.1721 L 44.1749 47.0845 C 44.9794 47.8891 46.2827 47.8891 47.0872 47.0845 C 47.8918 46.28 47.8918 44.9768 47.0872 44.1721 L 44.1749 41.2597 Z " stroke-width="0.12872594594955444"/>
    </g>
  </g>
</svg>