<svg xmlns="http://www.w3.org/2000/svg" xmlns:xlink="http://www.w3.org/1999/xlink" version="1.1" width="59.69720959974856" height="59.59691357924075" viewBox="-0.8054059163408014 -0.8667059556321832 59.69720959974856 59.59691357924075">
  <!-- Exported by Scratch - http://scratch.mit.edu/ -->
  <path id="ID0.0757432202808559" fill="#008793" stroke="none" d="M 0.9682 0.9069 L 57.1182 0.9069 L 57.1182 56.9566 L 0.9682 56.9566 L 0.9682 0.9069 Z " stroke-width="1.0026785135269165"/>
  <path id="ID0.8077859305776656" fill="none" stroke="#000000" stroke-width="3.5472118885669177" d="M 48.4541 14.201 L 48.8911 14.6418 L 13.9359 49.2901 L 13.4989 48.8492 L 48.4541 14.201 Z "/>
  <path id="ID0.5389075363054872" fill="#1D1D1B" d="M 54.1544 50.9702 C 49.4349 55.6934 41.7508 55.6934 37.0274 50.9702 C 32.3042 46.2468 32.3042 38.5626 37.0274 33.8413 C 38.2773 32.5935 39.801 31.6413 41.5535 31.0203 C 42.1055 30.8271 42.7167 30.9672 43.1266 31.3792 C 43.5407 31.7931 43.6806 32.4042 43.4855 32.9523 C 42.2987 36.2996 43.107 39.9228 45.5908 42.4068 C 48.0708 44.8886 51.6941 45.695 55.0453 44.5122 C 55.5934 44.3171 56.2065 44.457 56.6185 44.871 C 57.0325 45.281 57.1705 45.8941 56.9753 46.4441 C 56.3582 48.1966 55.4042 49.7203 54.1544 50.9702 Z M 39.1683 35.9821 C 35.6258 39.5247 35.6258 45.2888 39.1683 48.8293 C 42.9533 52.6163 49.3995 52.2752 52.6995 48.0565 C 49.2969 48.2694 45.9457 47.0413 43.45 44.5475 C 40.9543 42.0538 39.7282 38.7025 39.941 35.3 C 39.669 35.513 39.4107 35.7397 39.1683 35.9821 Z " stroke-width="0.09462389349937439"/>
  <g id="ID0.5474863699637353">
    <g id="ID0.9548296565189958">
      <path id="ID0.5195635338313878" fill="#1D1D1B" d="M 15.5668 9.1657 C 11.2933 9.1657 7.8157 12.6433 7.8157 16.9168 C 7.8157 21.1903 11.2933 24.6679 15.5668 24.6679 C 19.8403 24.6679 23.3179 21.1903 23.3179 16.9168 C 23.3179 12.6433 19.8403 9.1657 15.5668 9.1657 Z M 15.5668 22.4533 C 12.5087 22.4533 10.0303 19.9749 10.0303 16.9168 C 10.0303 13.8587 12.5087 11.3803 15.5668 11.3803 C 18.6249 11.3803 21.1033 13.8587 21.1033 16.9168 C 21.1033 19.9749 18.6249 22.4533 15.5668 22.4533 Z M 15.5668 6.9511 C 16.1781 6.9511 16.6741 6.4551 16.6741 5.8438 L 16.6741 3.6292 C 16.6741 3.0179 16.1781 2.5219 15.5668 2.5219 C 14.9555 2.5219 14.4595 3.0179 14.4595 3.6292 L 14.4595 5.8438 C 14.4595 6.4551 14.9555 6.9511 15.5668 6.9511 Z M 15.5668 26.8825 C 14.9555 26.8825 14.4595 27.3785 14.4595 27.9898 L 14.4595 30.2044 C 14.4595 30.8157 14.9555 31.3117 15.5668 31.3117 C 16.1781 31.3117 16.6741 30.8157 16.6741 30.2044 L 16.6741 27.9898 C 16.6741 27.3785 16.1781 26.8825 15.5668 26.8825 Z M 24.1787 9.8693 L 25.7445 8.3035 C 26.177 7.871 26.177 7.1703 25.7445 6.7377 C 25.3119 6.3052 24.6112 6.3052 24.1787 6.7377 L 22.6129 8.3035 C 22.1804 8.7361 22.1804 9.4368 22.6129 9.8693 C 23.0454 10.3019 23.7462 10.3019 24.1787 9.8693 Z M 6.9549 23.9644 L 5.3891 25.5302 C 4.9566 25.9626 4.9566 26.6633 5.3891 27.0959 C 5.8217 27.5284 6.5224 27.5284 6.9549 27.0959 L 8.5207 25.5302 C 8.9532 25.0962 8.9532 24.3968 8.5207 23.9644 C 8.0882 23.5317 7.3875 23.5303 6.9549 23.9644 Z M 5.6011 16.9168 C 5.6011 16.3055 5.1051 15.8095 4.4938 15.8095 L 2.2792 15.8095 C 1.6679 15.8095 1.1719 16.3055 1.1719 16.9168 C 1.1719 17.5281 1.6679 18.0241 2.2792 18.0241 L 4.4938 18.0241 C 5.1051 18.0241 5.6011 17.5281 5.6011 16.9168 Z M 28.8544 15.8095 L 26.6398 15.8095 C 26.0285 15.8095 25.5325 16.3055 25.5325 16.9168 C 25.5325 17.5281 26.0285 18.0241 26.6398 18.0241 L 28.8544 18.0241 C 29.4657 18.0241 29.9617 17.5281 29.9617 16.9168 C 29.9617 16.3055 29.4657 15.8095 28.8544 15.8095 Z M 6.9535 9.8693 C 7.3861 10.3019 8.0868 10.3019 8.5193 9.8693 C 8.9519 9.4368 8.9519 8.7361 8.5193 8.3035 L 6.9535 6.7377 C 6.5209 6.3052 5.8203 6.3052 5.3877 6.7377 C 4.9551 7.1703 4.9551 7.871 5.3877 8.3035 L 6.9535 9.8693 Z M 24.1802 23.9628 C 23.7462 23.5303 23.0468 23.5303 22.6144 23.9628 C 22.1817 24.3954 22.1804 25.0961 22.6144 25.5286 L 24.1802 27.0944 C 24.6126 27.527 25.3133 27.527 25.7459 27.0944 C 26.1784 26.6619 26.1784 25.9612 25.7459 25.5286 L 24.1802 23.9628 Z " stroke-width="0.06920627504587173"/>
    </g>
  </g>
</svg>